<?xml version="1.0" encoding="UTF-8" standalone="no"?>
<svg
   xmlns:dc="http://purl.org/dc/elements/1.1/"
   xmlns:cc="http://creativecommons.org/ns#"
   xmlns:rdf="http://www.w3.org/1999/02/22-rdf-syntax-ns#"
   xmlns:svg="http://www.w3.org/2000/svg"
   xmlns="http://www.w3.org/2000/svg"
   xmlns:xlink="http://www.w3.org/1999/xlink"
   xmlns:sodipodi="http://sodipodi.sourceforge.net/DTD/sodipodi-0.dtd"
   xmlns:inkscape="http://www.inkscape.org/namespaces/inkscape"
   id="eaae95e9-bf99-4a62-939f-b246d44eba2f"
   data-name="Layer 1"
   width="690"
   height="825"
   viewBox="0 0 690 825"
   version="1.1"
   sodipodi:docname="plan_budget.svg"
   inkscape:version="0.92.5 (2060ec1f9f, 2020-04-08)">
  <metadata
     id="metadata89">
    <rdf:RDF>
      <cc:Work
         rdf:about="">
        <dc:format>image/svg+xml</dc:format>
        <dc:type
           rdf:resource="http://purl.org/dc/dcmitype/StillImage" />
        <dc:title>adjustments</dc:title>
      </cc:Work>
    </rdf:RDF>
  </metadata>
  <defs
     id="defs87">
    <linearGradient
       id="b5f20e7f-16f1-44c3-85ac-2c33fb8e67f8-6"
       x1="2612.03"
       y1="795.17999"
       x2="2612.03"
       y2="399.51999"
       gradientTransform="matrix(-1,0,0,1,4122.0115,-331.53353)"
       gradientUnits="userSpaceOnUse">
      <stop
         offset="0"
         stop-color="gray"
         stop-opacity="0.25"
         id="stop1842-3" />
      <stop
         offset="0.54"
         stop-color="gray"
         stop-opacity="0.12"
         id="stop1844-2" />
      <stop
         offset="1"
         stop-color="gray"
         stop-opacity="0.1"
         id="stop1846-0" />
    </linearGradient>
    <linearGradient
       inkscape:collect="always"
       xlink:href="#b5f20e7f-16f1-44c3-85ac-2c33fb8e67f8-6"
       id="linearGradient7755-5"
       gradientUnits="userSpaceOnUse"
       gradientTransform="matrix(-1,0,0,1,2966.1719,29.32076)"
       x1="2612.03"
       y1="795.17999"
       x2="2612.03"
       y2="399.51999" />
  </defs>
  <sodipodi:namedview
     pagecolor="#ffffff"
     bordercolor="#666666"
     borderopacity="1"
     objecttolerance="10"
     gridtolerance="10"
     guidetolerance="10"
     inkscape:pageopacity="0"
     inkscape:pageshadow="2"
     inkscape:window-width="1920"
     inkscape:window-height="978"
     id="namedview85"
     showgrid="false"
     inkscape:zoom="0.44205881"
     inkscape:cx="362.28085"
     inkscape:cy="303.79137"
     inkscape:window-x="1366"
     inkscape:window-y="27"
     inkscape:window-maximized="1"
     inkscape:current-layer="eaae95e9-bf99-4a62-939f-b246d44eba2f"
     inkscape:snap-intersection-paths="true"
     inkscape:snap-object-midpoints="false"
     inkscape:snap-others="false"
     inkscape:snap-nodes="false" />
  <title
     id="title2">adjustments</title>
  <g
     id="g9288"
     transform="translate(116)">
    <g
       transform="translate(-1228.4746,213.96187)"
       id="g8505">
      <path
         inkscape:connector-curvature="0"
         style="fill:#3f3d56;stroke-width:1.12124538"
         d="m 1650.3108,-16.86887 h -4.5705 V -137.3622 a 72.465959,69.738238 0 0 0 -72.4658,-69.7383 h -265.2666 a 72.465971,69.73825 0 0 0 -72.4662,69.73807 v 661.03598 a 72.465982,69.738261 0 0 0 72.466,69.7383 h 265.2665 a 72.465982,69.738261 0 0 0 72.4661,-69.73806 V 68.90034 h 4.5705 z"
         id="path2" />
      <path
         inkscape:connector-curvature="0"
         style="fill:#ffffff;stroke-width:1.12124538"
         d="m 1630.3183,-136.87601 v 660.06318 a 54.113699,52.076783 0 0 1 -46.6672,51.58719 53.454587,51.442481 0 0 1 -7.4521,0.49497 h -266.5504 a 53.454723,51.442613 0 0 1 -7.4522,-0.49497 54.113585,52.076673 0 0 1 -46.6557,-51.58719 v -660.06318 a 54.12034,52.083174 0 0 1 54.1193,-52.08217 h 32.3345 a 25.700896,24.733478 0 0 0 23.8078,34.08715 h 151.9684 a 25.6947,24.727515 0 0 0 23.7965,-34.08715 h 34.6319 a 54.120328,52.083163 0 0 1 54.1192,52.08217 z"
         id="path4-5" />
      <ellipse
         style="fill:#f2f2f2;stroke-width:1.12164474"
         cx="782.93445"
         cy="1340.6185"
         rx="0.49350846"
         ry="0.42367318"
         transform="matrix(0.65508876,-0.75555193,0.77973057,0.62611519,0,0)"
         id="ellipse46" />
    </g>
    <ellipse
       style="fill:#f2f2f2"
       id="ellipse2261-8"
       transform="rotate(-50.15848)"
       ry="0.37643"
       rx="0.44150001"
       cy="550.44794"
       cx="-180.7621" />
    <rect
       id="rect1897-5"
       rx="10.65"
       height="21.309999"
       width="80.57"
       y="224.0948"
       x="74.633797"
       style="fill:#b3ff80" />
    <rect
       id="rect20-6-9"
       height="7.1996841"
       width="269.70447"
       y="286.04123"
       x="71.907478"
       style="fill:#3f3d56" />
    <rect
       id="rect26-8-7"
       height="40.802448"
       width="15.200212"
       y="269.23987"
       x="186.90698"
       style="fill:#8bc34a" />
    <rect
       id="rect1897-8-5"
       rx="10.65"
       height="21.309999"
       width="80.57"
       y="355.78836"
       x="78.49659"
       style="fill:#b3ff80" />
    <rect
       id="rect20-6-4-3"
       height="7.1996841"
       width="269.70447"
       y="417.73474"
       x="75.770271"
       style="fill:#3f3d56" />
    <path
       inkscape:connector-curvature="0"
       id="path7664-8"
       d="m 326.22802,467.67077 c -0.8628,-0.38204 -2.8066,-2.54488 -4.4243,-4.92293 -1.587,-2.33284 -5.3792,-6.6592 -8.4271,-9.61412 -4.6836,-4.54087 -5.695,-5.84392 -6.5327,-8.41729 -1.186,-3.64301 -0.9507,-9.57894 0.4902,-12.36533 2.7549,-5.32736 9.4021,-5.03213 16.0647,0.71349 3.0354,2.6176 3.608,3.74682 5.4446,10.7378 1.78,6.77555 3.4074,11.00223 5.5407,14.39048 0.8707,1.38284 1.5831,2.92581 1.5831,3.42882 0,1.0517 -2.1333,3.18493 -5.3101,5.31006 -2.5012,1.67315 -2.3692,1.65112 -4.4291,0.73902 z"
       style="fill:#e2abab;fill-opacity:1;stroke:#e2abab;stroke-width:0.5655356;stroke-opacity:1" />
    <rect
       id="rect26-8-3-8"
       height="40.802448"
       width="15.200212"
       y="400.22647"
       x="306.84595"
       style="fill:#8bc34a" />
    <rect
       id="rect1885-6-3"
       rx="10.65"
       height="21.309999"
       width="43.279999"
       y="556.92078"
       x="352.90173"
       style="fill:#8bc34a" />
    <circle
       id="circle1887-1-1"
       r="6.6599998"
       cy="567.58075"
       cx="374.21179"
       style="fill:#ffffff" />
    <path
       sodipodi:nodetypes="ccccccccccccccccccccccccccccccccccccccccccccccccccccccccccccccccccccccsccccccccccccccccscccccccccccccccccccsccccccccccccccscccccsccccccccccccccccccccccccccccccccscccccccccccccccccccccccccccccccccccccccccccccccccccc"
       id="path1943-5-8"
       d="m 283.34182,791.32076 c 1.57,-0.23 3.14,-0.55 4.68,-0.91 -0.2013,1.54074 -0.6469,3.03955 -1.32,4.44 -1.53,2.9 -4.52,4.65 -7.27,6.43 -0.7812,-0.73015 -1.9685,-0.80958 -2.84,-0.19 -3.31,2 -5.95,4.82 -9.46,6.54 -1.23,0.6 -2.51,1.08 -3.71,1.75 -2.9114,1.77398 -5.321,4.26276 -7,7.23 -1,1.55 -1.81,3.59 -0.83,5.13 0.3759,0.52109 0.8604,0.9544 1.42,1.27 1.4252,0.99447 3.133,1.50296 4.87,1.45 1,-0.09 2,-0.47 3.09,-0.64 1.37,-0.24 2.77,-0.12 4.15,-0.24 2.0019,-0.25842 3.9637,-0.76567 5.84,-1.51 l 6.87,-2.4 c 1.9401,-0.62702 3.8291,-1.40265 5.65,-2.32 1.09,-0.59 2.12,-1.28 3.23,-1.82 1.2489,-0.55405 2.5396,-1.00879 3.86,-1.36 l 3.9,-1.14 c 0.5603,-0.21453 1.1634,-0.29334 1.76,-0.23 0.54,0.1 1,0.44 1.55,0.58 0.8396,0.14927 1.7041,0.0663 2.5,-0.24 l 4.52,-1.28 c 0.9543,-0.2161 1.8643,-0.59497 2.69,-1.12 2.07,-1.47 2.44,-4.39 2.43,-6.94 -0.01,-3.86281 -0.4462,-7.71272 -1.3,-11.48 -0.5787,0.23504 -1.0855,0.61778 -1.47,1.11 -0.4615,-0.65056 -0.9589,-1.27487 -1.49,-1.87 -2.0823,-2.42183 -3.6203,-5.26252 -4.51,-8.33 1.6324,-1.21291 2.9946,-2.75219 4,-4.52 -2.39,-9.11 -4.84,-18.36 -9.7,-26.4 -1.59,-2.62 -3.41,-5.08 -5,-7.66 -4.73,-7.5 -5.7,-17 -11.11,-24 -1.0543,-1.45583 -1.0543,-3.42417 0,-4.88 0.62,-0.82 1.62,-1.59 1.43,-2.61 -0.14,-0.73 -0.9,-1.4 -0.61,-2.08 0.14,-0.33 0.48,-0.51 0.74,-0.75 0.92,-0.86 0.8,-2.31 0.89,-3.57 0.2,-3.18 2.09,-6 3.91,-8.56 0.369,-0.61247 0.859,-1.14328 1.44,-1.56 0.49,-0.3 1.07,-0.44 1.56,-0.74 1.72,-1.09 1.6,-3.62 2.42,-5.5 1.08,-2.48 3.8,-3.73 5.58,-5.74 2.27,-2.56 2.85,-6.12 5.24,-8.35 0.2452,-0.23484 0.5094,-0.44891 0.79,-0.64 -1.0368,3.79357 -1.5118,7.71863 -1.41,11.65 -0.23,13.53 3.13,27.53 1.56,41 -1.24,10.66 5.27,21.29 14.5,26.62 3.6144,1.92714 7.3925,3.53008 11.29,4.79 5.78,2.07 11.54,4.2 17.21,6.58 4,1.68 7.9467,3.48333 11.84,5.41 4.8049,2.34736 9.4785,4.95455 13.99996,7.81 5.56,3.57 11.13,7.19 15.08,12.52 2.417,-0.12284 4.7396,-0.97725 6.6601,-2.45 1.52,1.2 3.36,2.11 4.79,3.44 1.9746,2.05755 3.2967,4.65303 3.8,7.46 h -0.6 c 0.07,1.33 0.13,2.66 0.2,4 0.053,0.34083 3e-4,0.6896 -0.15,1 -0.1449,0.19827 -0.3286,0.36499 -0.54,0.49 l -3.08,2.09 c -2.24,1.51 -4.71,3.42 -4.83,6.13 -0.062,0.78854 0.1771,1.57132 0.67,2.19 0.7537,0.70104 1.7159,1.13649 2.74,1.24 5.36,1.13 10.85,2.23 16.28,1.5 2.58,-0.35 5.25,-1.2 6.93,-3.2 1.54,-1.82 2,-4.29 2.42,-6.64 0.67,-4 1.23,-8.09 1.67,-12.15 0.135,-2.75936 0.6949,-5.48138 1.66,-8.07 0.075,-0.22533 0.2271,-0.41674 0.43,-0.54 0.23,-0.1 0.5,0 0.74,-0.1 0.24,-0.1 0.4,-0.47 0.48,-0.77 0.9901,-3.94916 1.4707,-8.00881 1.43,-12.08 0.047,-1.05736 -0.1126,-2.11375 -0.47,-3.11 -0.8562,-1.68902 -2.4288,-2.90154 -4.28,-3.3 -1.8222,-0.37046 -3.6718,-0.59119 -5.53,-0.66 -1.5511,-0.14926 -3.0866,-0.43028 -4.59,-0.84 -0.6087,-0.23018 -1.2626,-0.31576 -1.91,-0.25 -0.6652,0.0902 -1.1611,0.65869 -1.16,1.33 0.035,0.23077 0.1165,0.45198 0.24,0.65 l -1.56,-0.31 c -1.26,-0.23 -3,-0.78 -4.89,-1.24 0,-0.32 0.02,-0.65333 0.06,-1 0.01,-0.72993 -0.4042,-1.39948 -1.06,-1.72 l -26.4201,-14.12 -4.94,-2.64 c -10.81996,-5.79 -21.99996,-11.14 -32.84996,-16.93 -0.72,0.22 -1.32,-0.61 -1.53,-1.35 -0.21,-0.74 -0.36,-1.62 -1.05,-1.95 -0.34,-0.16 -0.79,-0.15 -1,-0.44 -0.1788,-0.25978 -0.2471,-0.57988 -0.19,-0.89 0.35,-5.27 4.12,-10.13 3.37,-15.35 -0.32,-2.23 -1.47,-4.43 -1,-6.62 0.35,-1.51 1.43,-2.74 2,-4.18 1.3,-3.22 0,-7.09 1.42,-10.24 0.9464,-2.07037 1.5896,-4.26625 1.91,-6.52 0.6697,-4.49116 2.0184,-8.85436 4,-12.94 0.9575,-2.06095 2.2107,-3.97109 3.72,-5.67 0.79,-0.86 1.68,-1.63 2.44,-2.52 2.3,-2.75 3.15,-6.41 3.8,-10 1.18,-6.41 2,-13.06 0.52,-19.42 -0.5,-2.16 -1.26,-4.31 -1.23,-6.53 0,-2.66 1.07,-5.71 -0.22,-7.84 1.3288,-1.067 2.2158,-2.58801 2.49,-4.27 0.019,-0.6052 0.137,-1.20319 0.35,-1.77 0.4394,-0.61693 1.0096,-1.12915 1.67,-1.5 2.1054,-1.6064 3.1075,-4.27481 2.58,-6.87 1.37,0.62 2.81,-0.77 3.46,-2.14 0.65,-1.37 1.14,-3 2.53,-3.62 0.94,-0.4 1.99996,-0.16 2.99996,-0.42 1.59,-0.41 2.56,-2 3.68,-3.17 2.28,-2.46 5.51,-3.73 8.5,-5.24 8.8601,-4.51 16.0801,-11.64 23.1501,-18.65999 3.687,-3.42367 7.0358,-7.1944 10,-11.26 0.79,-1.17 1.51,-2.38 2.19,-3.62 l 0.18,-0.09 0.06,0.22 c 0.11,0.44 0.24,0.88 0.37,1.31 0.32,1 0.68,2.07 1,3.09 1.08,3 2.25,6.2 4.45,8.47 0.6747,0.69234 1.442,1.28798 2.28,1.77 1.818,0.97653 3.8147,1.5752 5.87,1.76 0.78,0.1 1.57,0.16 2.36,0.2 0.79,0.04 1.58,0.07 2.36,0.09 l 16.18,0.43 c -5.56,-8.06 -6,-18.54 -5.63,-28.35 0.93,-25.2 5.84,-50.63 1.28,-75.43 -0.55,-3 -1.28,-6 -3.11,-8.41 -2.4,-3.15 -6.34,-4.67 -10.18,-5.56 -3.84,-0.89 -7.83,-1.32 -11.42,-2.93 -3,-1.37 -5.76,-3.57 -9,-4.29 -2.3872,-0.39998 -4.8275,-0.3593 -7.2,0.12 -2.92,0.43333 -5.8233,0.94667 -8.71,1.54 l -0.7,0.15 h 0.03 l -0.48,0.11 h -0.13 l -0.43,0.1 h -0.16 l -0.4,0.11 -0.18,0.05 -0.37,0.12 -0.21,0.07 -0.34,0.11 -0.22,0.09 -0.32,0.12 -0.24,0.1 -0.29,0.13 -0.24,0.12 -0.27,0.13 -0.24,0.14 -0.25,0.14 -0.24,0.16 -0.23,0.15 -0.24,0.17 -0.2,0.16 -0.23,0.2 -0.19,0.17 c -0.078,0.0717 -0.1519,0.14853 -0.22,0.23 l -0.17,0.17 c -0.079,0.0889 -0.1523,0.18239 -0.22,0.28 0,0.05 -0.09,0.1 -0.13,0.16 -0.04,0.06 -0.18,0.26 -0.27,0.41 v 0.06 c -0.2257,0.37572 -0.4101,0.7747 -0.5501,1.19 -0.07,0.21 -0.14,0.42 -0.19,0.63 -0.1032,0.42774 -0.1767,0.86211 -0.22,1.3 0,0.22 0,0.45 -0.05,0.67 v 1.33 c 0.04,0.75084 0.1238,1.49874 0.25,2.24 -15.4442,9.12719 -16.0666,31.2489 -1.16,41.23 0.048,0.39492 0.075,0.79217 0.08,1.19 v 0.26 c -0.056,1.41465 -0.203,2.82423 -0.44,4.22 -3.9527,-0.76757 -7.9739,-1.12613 -12,-1.07 -2.4,0 -4.82,0.22 -7.24,0.41 -2.59396,-3.12929 -5.01106,-6.40105 -7.23996,-9.8 l -5.34,-7.83 c -1.8338,-2.55848 -3.5038,-5.23049 -5,-8 -1.31,-2.54 -2.33,-5.24 -3.79,-7.7 -8.51,-14.09 -31.5013,-11.23422 -31.77,4.71 -0.38,2.3 -1,4.56 -1.18,6.88 -0.73,8.38 3.63,16.76 2.07,25 -0.5278,2.53897 0.6073,5.13413 2.83,6.47 2.24,1.21 4.86,1.37 7.32,2 4.83,1.24 9,4.33 13.88,5.48 2.25,0.54 4.59,0.64 6.83,1.24 l 0.35,0.11 c -1.7256,1.953 -2.9568,4.29195 -3.59,6.82 -1,4.2 -0.06,8.69 -1.06,12.89 -0.82,3.46 -2.88,6.48 -4.91,9.41 -3.9067,5.65333 -7.82,11.32 -11.74,17 -2.6196,3.98356 -5.5098,7.78248 -8.65,11.36999 -5.39,5.89 -14.69,10.56 -17.43,17.64 -0.06,-0.17 -0.14,-0.34 -0.2,-0.51 -3.88,2.85 -5.33,8.16 -8.42,11.85 -1.51,1.79 -3.37,3.24 -5,4.9 -2.0194,2.14253 -3.8683,4.43951 -5.53,6.87 -4.6,6.38 -9.23,12.79 -12.52,19.94 -1.72,3.72 -3.05,7.59 -4.42,11.44 -5.38,15.17 -14.16,29.56 -17.81,45.25 -0.89,3.83 -3.22,7.29 -3.57,11.21 -0.39,4.18 1.52,8.2 3.5,11.89 3,5.64 6.34,11.12 9,16.92 1.57,3.38 2.93,6.87 4.68,10.17 1.91,3.6 4.25,6.94 6.25,10.49 4.87,9.11 7.67,19.18 10.26,29.11 z m 66.16,-286.54999 -0.48,-0.24 c -1.7933,-0.77569 -3.4352,-1.86242 -4.85,-3.21 -4.31,-4.6 -6.16,-11.53 -7.51,-17.72 -0.16,-0.74 -0.3,-1.47 -0.43,-2.21 5.23,7.43 10.17,15.11 13.27,23.4 z"
       style="fill:url(#linearGradient7755-5)"
       inkscape:connector-curvature="0" />
    <path
       id="path1949-7-9"
       d="m 399.02188,510.55077 a 58.88,58.88 0 0 0 -16.1801,-2 c -9.10996,0.13 -18.48996,2.34 -27.16996,-0.46 a 47.4,47.4 0 0 1 -6.5,-2.77 16.58,16.58 0 0 1 -4.86,-3.19 c -4.32,-4.57 -6.18,-11.46 -7.52,-17.6 a 117.44,117.44 0 0 1 -2.05,-18.73 c -2.25,1.05 -4.63,2.08 -7.1,1.87 -2.47,-0.21 -5,-2.11 -5,-4.59 0.37,5.82 0.64,11.71 -0.33,17.45 -0.38,2.28 -1,4.53 -1.17,6.83 -0.74,8.33 3.63,16.65 2.07,24.86 a 6,6 0 0 0 2.83,6.42 c 2.24,1.21 4.87,1.36 7.33,2 4.83,1.23 9,4.3 13.9,5.45 2.25,0.53 4.6,0.63 6.84,1.23 3.19,0.85 6.1,2.68 9.36,3.25 2.44,0.44 5,0.14 7.43,0.35 2.15,0.18 4.24996,0.74 6.40996,0.8 5.28,0.13 10.26,-2.85 13.76,-6.81 3.5,-3.96 5.73,-9.59 7.9501,-14.36 z"
       style="fill:#f86d70"
       inkscape:connector-curvature="0" />
    <path
       id="path1951-6-6"
       d="m 399.02188,510.55077 a 58.88,58.88 0 0 0 -16.1801,-2 c -9.10996,0.13 -18.48996,2.34 -27.16996,-0.46 a 47.4,47.4 0 0 1 -6.5,-2.77 16.58,16.58 0 0 1 -4.86,-3.19 c -4.32,-4.57 -6.18,-11.46 -7.52,-17.6 a 117.44,117.44 0 0 1 -2.05,-18.73 c -2.25,1.05 -4.63,2.08 -7.1,1.87 -2.47,-0.21 -5,-2.11 -5,-4.59 0.37,5.82 0.64,11.71 -0.33,17.45 -0.38,2.28 -1,4.53 -1.17,6.83 -0.74,8.33 3.63,16.65 2.07,24.86 a 6,6 0 0 0 2.83,6.42 c 2.24,1.21 4.87,1.36 7.33,2 4.83,1.23 9,4.3 13.9,5.45 2.25,0.53 4.6,0.63 6.84,1.23 3.19,0.85 6.1,2.68 9.36,3.25 2.44,0.44 5,0.14 7.43,0.35 2.15,0.18 4.24996,0.74 6.40996,0.8 5.28,0.13 10.26,-2.85 13.76,-6.81 3.5,-3.96 5.73,-9.59 7.9501,-14.36 z"
       style="opacity:0.1"
       inkscape:connector-curvature="0" />
    <path
       id="path1953-5-4"
       d="m 413.48188,767.99076 a 13.69,13.69 0 0 1 4.67,1.46 11,11 0 0 1 4.06,5.48 c 2.18,5.38 2.63,11.3 2.73,17.11 0.08,4.69 -0.08,9.49 -1.76,13.87 a 8.83,8.83 0 0 1 -2.31,3.63 8.33,8.33 0 0 1 -3.18,1.54 c -2.51,0.69 -5.41,0.68 -7.46,-0.92 -2.28,-1.78 -2.85,-4.93 -3.33,-7.78 -0.65,-3.84 -1.57,-7.93 -4.43,-10.58 -2.12,-2 -5.16,-3 -6.7001,-5.42 -1.84,-2.91 -0.87,-6.71 0.3,-9.95 1.0001,-2.81 2.5101,-8.5 5.4501,-9.94 2.94,-1.44 8.91,0.95 11.96,1.5 z"
       style="fill:#fbbebe"
       inkscape:connector-curvature="0" />
    <path
       id="path1955-6-3"
       d="m 305.17182,781.79076 a 22.15,22.15 0 0 0 4.58,8.51 c 1.3,1.5 2.93,3.32 2.25,5.18 a 4.82,4.82 0 0 1 -1.23,1.65 c -9.66,9.44 -23.17,14 -36.57,15.72 a 1.29,1.29 0 0 1 -0.65,0 c -0.39,-0.17 -0.49,-0.67 -0.53,-1.1 a 13.51,13.51 0 0 1 0,-4.21 c 0.65,-3.27 3.52,-5.58 6.33,-7.39 2.81,-1.81 5.88,-3.55 7.44,-6.5 1.95,-3.66 1.13,-8.43 3.45,-11.86 1.88,-2.79 5.38,-4 8.71,-4.5 1.15,-0.18 3.6,-1.44 4.58,-0.86 0.98,0.58 1.3,4.21 1.64,5.36 z"
       style="fill:#fbbebe"
       inkscape:connector-curvature="0" />
    <path
       id="path1957-9-3"
       d="m 414.80188,767.65076 a 1.33,1.33 0 0 1 1.16,-1.32 4.35,4.35 0 0 1 1.91,0.24 26.5,26.5 0 0 0 4.59,0.85 34.07,34.07 0 0 1 5.54,0.65 6.27,6.27 0 0 1 4.29,3.27 8.12,8.12 0 0 1 0.47,3.1 47.06,47.06 0 0 1 -1.43,12 c -0.08,0.3 -0.2,0.65 -0.49,0.76 -0.29,0.11 -0.5,0 -0.73,0.11 a 0.9,0.9 0 0 0 -0.43,0.54 26.42,26.42 0 0 0 -1.67,8 c -0.44,4 -1,8.06 -1.67,12.06 -0.39,2.34 -0.88,4.8 -2.42,6.6 -1.69,2 -4.36,2.83 -6.94,3.18 -5.44,0.72 -10.93,-0.37 -16.3,-1.49 a 4.77,4.77 0 0 1 -2.75,-1.23 3.09,3.09 0 0 1 -0.67,-2.18 c 0.12,-2.69 2.6,-4.59 4.83,-6.09 l 3.09,-2.07 a 1.6,1.6 0 0 0 0.54,-0.49 1.67,1.67 0 0 0 0.15,-1 l -0.2,-4 a 11.33,11.33 0 0 1 9.87,6.14 c 0.42,0.85 0.83,1.84 1.71,2.17 a 2.26,2.26 0 0 0 2.69,-1.63 6.93,6.93 0 0 0 -0.09,-3.47 c -1.81,-9.67 -1.38,-19.61 -2.48,-29.38 a 6.63,6.63 0 0 0 -1,-3.1 c -0.47,-0.67 -1.46,-1.32 -1.57,-2.22 z"
       style="fill:#f86d70"
       inkscape:connector-curvature="0" />
    <path
       id="path1963-3-3"
       d="m 280.28182,805.14076 c -0.45,0.75 -1.16,1.33 -1.58,2.1 a 1.8,1.8 0 0 0 0.34,2.35 2.32,2.32 0 0 0 1.43,0.14 48.11,48.11 0 0 0 26,-11.78 18.21,18.21 0 0 0 3.19,-3.49 c 0.85,-1.29 1.57,-2.87 3,-3.41 a 51.92,51.92 0 0 1 1.34,11.45 c 0,2.54 -0.36,5.43 -2.43,6.9 a 8.63,8.63 0 0 1 -2.7,1.1 l -4.52,1.28 a 4.81,4.81 0 0 1 -2.51,0.24 c -0.53,-0.14 -1,-0.48 -1.55,-0.58 a 3.8,3.8 0 0 0 -1.76,0.23 l -3.91,1.14 a 24.86,24.86 0 0 0 -3.86,1.35 c -1.12,0.53 -2.15,1.21 -3.24,1.8 a 38.78,38.78 0 0 1 -5.66,2.3 l -6.87,2.39 a 24.91,24.91 0 0 1 -5.85,1.5 c -1.38,0.12 -2.79,0 -4.16,0.23 -1,0.18 -2,0.56 -3.1,0.64 a 8.11,8.11 0 0 1 -4.87,-1.44 4.53,4.53 0 0 1 -1.42,-1.26 c -1,-1.53 -0.13,-3.55 0.83,-5.1 a 20.16,20.16 0 0 1 7,-7.18 c 1.2,-0.66 2.49,-1.14 3.72,-1.74 3.51,-1.7 6.16,-4.54 9.47,-6.48 3.13,-1.83 5.14,2.9 3.67,5.32 z"
       style="fill:#f86d70"
       inkscape:connector-curvature="0" />
    <path
       id="path1965-7-8"
       d="m 376.86178,528.26077 a 28.57,28.57 0 0 0 12.16,4.73 49.5,49.5 0 0 0 6.88,0.37 174.85,174.85 0 0 0 28.6301,-2.39 c -3.76,-4.15 -7.57,-8.59 -9,-14 a 23.11,23.11 0 0 1 -0.44,-8.77 66,66 0 0 1 2.68,-11 77.63,77.63 0 0 1 -12.1,-0.31 c -2.29,-0.24 -7.91,-2.32 -9.9001,-0.74 -1.99,1.58 -0.46,6.67 -0.43,9.06 a 2.26,2.26 0 0 1 0,0.26 28.93,28.93 0 0 1 -2.31,10.58 c -2.86,6.46 -9.06,11.78 -16.17,12.21 z"
       style="fill:#fbbebe"
       inkscape:connector-curvature="0" />
    <path
       id="path1967-4-6"
       d="m 395.35178,505.16077 a 24.06,24.06 0 0 0 19.7501,3 66,66 0 0 1 2.68,-11 77.63,77.63 0 0 1 -12.1,-0.31 c -2.29,-0.24 -7.91,-2.32 -9.9001,-0.74 -1.99,1.58 -0.46,6.66 -0.43,9.05 z"
       style="opacity:0.1"
       inkscape:connector-curvature="0" />
    <circle
       id="circle1969-5-0"
       r="24.110001"
       cy="483.86081"
       cx="408.55176"
       style="fill:#fbbebe" />
    <path
       id="path1971-2-4"
       d="m 306.26182,605.85076 a 11.23,11.23 0 0 0 5.44,9.67 21.69,21.69 0 0 0 5.9,2.08 c 11,2.66 22.32,4.8 33.65,4.15 a 18.49,18.49 0 0 0 7.14,-1.5 7.66,7.66 0 0 0 4.41,-5.51 5.18,5.18 0 0 1 0.34,-1.75 5.11,5.11 0 0 1 1.67,-1.49 6.84,6.84 0 0 0 2.59,-6.82 c 1.37,0.62 2.81,-0.77 3.46,-2.13 0.65,-1.36 1.15,-3 2.53,-3.59 0.94,-0.4 1.99996,-0.16 2.99996,-0.42 1.59,-0.41 2.56,-2 3.68,-3.15 2.28,-2.44 5.53,-3.7 8.51,-5.21 8.8801,-4.47 16.1101,-11.56 23.2001,-18.52999 a 77.76,77.76 0 0 0 10,-11.18 41.2,41.2 0 0 0 2.2,-3.6 101.82,101.82 0 0 0 5.55,-12.71 c 0.9,-2.34 1.81,-4.8 1.44,-7.28 0,-0.22 -0.08,-0.44 -0.13,-0.67 a 14,14 0 0 0 -2.19,-4.42 c -2.45,-3.6 -5.66,-7 -9.88,-8.12 -4.22,-1.12 -8.42,0.23 -12.71,1.14 a 31.85,31.85 0 0 1 -4.31,0.66 c -4.54,0.32 -9.0001,-0.9 -13.4201,-2.11 l -4.78,-1.32 c -2.39,-0.66 -3.59,-3.55 -6,-4.06 a 8.12,8.12 0 0 0 -3.24996,0.17 c -4.91,0.93 -9.87,2.14 -14.2,4.64 a 21.32,21.32 0 0 0 -2.76,1.88 17.47,17.47 0 0 0 -6.42,9.47 c -1,4.17 -0.06,8.63 -1.06,12.8 -0.82,3.44 -2.89,6.44 -4.91,9.34 l -11.78,16.87 a 104.13,104.13 0 0 1 -8.66,11.27999 c -6.34,6.89 -18.08,12.07 -18.25,21.42 z"
       style="fill:#f86d70"
       inkscape:connector-curvature="0" />
    <rect
       id="rect26-8-6-8"
       height="40.802448"
       width="15.200212"
       y="641.75171"
       x="260.34631"
       style="fill:#8bc34a" />
    <rect
       id="rect20-6-2-8"
       height="7.1996841"
       width="269.70447"
       y="658.5531"
       x="73.346809"
       style="fill:#3f3d56" />
    <path
       id="path1975-4-8"
       d="m 252.98182,723.96076 c 3,5.6 6.34,11 9.05,16.8 1.57,3.37 2.93,6.83 4.68,10.11 1.91,3.57 4.26,6.89 6.26,10.41 5,8.9 7.83,18.94 10.42,28.83 a 57.39,57.39 0 0 0 20.52,-7.22 12.9,12.9 0 0 0 1.23,-0.79 14.52,14.52 0 0 0 4.14,-4.57 c -2.39,-9 -4.84,-18.23 -9.71,-26.22 -1.59,-2.6 -3.41,-5 -5,-7.61 -4.73,-7.45 -5.71,-16.84 -11.12,-23.81 a 4.08,4.08 0 0 1 0,-4.84 c 0.62,-0.81 1.62,-1.58 1.43,-2.59 -0.14,-0.73 -0.9,-1.39 -0.61,-2.07 0.14,-0.33 0.48,-0.51 0.74,-0.75 0.92,-0.84 0.8,-2.29 0.89,-3.53 0.2,-3.16 2.09,-5.93 3.92,-8.51 a 5.34,5.34 0 0 1 1.44,-1.55 c 0.49,-0.3 1.07,-0.44 1.56,-0.74 1.72,-1.07 1.6,-3.59 2.43,-5.46 1.08,-2.46 3.8,-3.71 5.59,-5.7 2.27,-2.54 2.84,-6.07 5.24,-8.29 a 7.11,7.11 0 0 1 0.79,-0.64 39.7,39.7 0 0 0 -1.41,11.61 c -0.23,13.44 3.13,27.34 1.56,40.69 -1.24,10.58 5.28,21.14 14.52,26.44 a 70.28,70.28 0 0 0 11.31,4.76 c 5.78,2.05 11.56,4.16 17.23,6.53 4,1.66 8,3.46 11.86,5.37 a 146,146 0 0 1 13.99996,7.76 c 5.57,3.54 11.15,7.14 15.1,12.43 3.83,-0.1 7.3401,-2.4 9.7601,-5.37 2.42,-2.97 3.93,-6.56 5.34,-10.11 1.23,-3.07 2.45,-6.22 2.54,-9.53 a 1.9,1.9 0 0 0 -1.06,-1.71 l -26.4601,-14 -5,-2.62 c -10.82996,-5.75 -21.99996,-11.07 -32.88996,-16.81 -0.73,0.21 -1.33,-0.62 -1.54,-1.34 -0.21,-0.72 -0.36,-1.62 -1.05,-1.94 -0.35,-0.16 -0.79,-0.16 -1,-0.44 a 1.2,1.2 0 0 1 -0.18,-0.88 c 0.35,-5.24 4.13,-10.06 3.37,-15.25 -0.32,-2.22 -1.47,-4.4 -1,-6.57 0.35,-1.51 1.43,-2.73 2,-4.16 1.29,-3.2 0,-7 1.42,-10.17 a 23.34,23.34 0 0 0 1.91,-6.48 43.88,43.88 0 0 1 4.05,-12.84 23.18,23.18 0 0 1 3.72,-5.64 c 0.8,-0.85 1.69,-1.62 2.44,-2.5 2.31,-2.73 3.15,-6.37 3.81,-9.88 1.18,-6.37 2,-13 0.52,-19.29 -0.5,-2.15 -1.26,-4.28 -1.23,-6.49 0,-2.91 1.31,-6.32 -0.71,-8.43 a 6.6,6.6 0 0 0 -3,-1.52 90.43,90.43 0 0 0 -14.35,-2.65 l -22.06,-2.87 a 20.28,20.28 0 0 1 -7.35,-1.91 c -3,-1.65 -5,-4.72 -6.2,-7.92 -3.88,2.83 -5.34,8.1 -8.43,11.76 -1.51,1.79 -3.37,3.23 -5,4.87 a 55.11,55.11 0 0 0 -5.54,6.83 c -4.61,6.33 -9.25,12.71 -12.55,19.8 -1.71,3.69 -3,7.54 -4.42,11.36 -5.39,15.07 -14.18,29.37 -17.83,44.94 -0.9,3.81 -3.23,7.24 -3.58,11.14 -0.41,4.13 1.5,8.13 3.49,11.77 z"
       style="fill:#434175"
       inkscape:connector-curvature="0" />
    <path
       id="path1977-7-9"
       d="m 368.70182,598.86076 a 6.85,6.85 0 0 1 0.81,3.26 c -0.49,-2.44 -3.85,-3.79 -4.06,-6.2 -0.1,-1.11 0.1,-1.06 0.79,-0.47 1.05,0.87 1.5,2.45 2.46,3.41 z"
       style="opacity:0.1"
       inkscape:connector-curvature="0" />
    <path
       id="path1979-4-7"
       d="m 358.49182,606.26076 a 5.15,5.15 0 0 1 1.53,2.26 5.75,5.75 0 0 1 0.3,3.93 c -0.49,-0.23 -0.66,-0.83 -0.81,-1.36 a 9.38,9.38 0 0 0 -1,-2.33 c -0.4,-0.63 -2.23,-2.13 -2.21,-2.82 -0.03,-1.04 1.7,-0.05 2.19,0.32 z"
       style="opacity:0.1"
       inkscape:connector-curvature="0" />
    <path
       id="path1981-4-7"
       d="m 357.31182,524.67077 a 25.23,25.23 0 0 0 5.08,3.38 c 4.78,2.42 10.07,3.69 14.87996,6 a 72.17,72.17 0 0 1 6.9,4 c 4.77,3 9.53,6 14.2901,9.05 a 15.75,15.75 0 0 1 3.15,2.39 c 1.72,1.84 1.71,5 3.28,7 a 9.4,9.4 0 0 0 6.93,3.2 22.5,22.5 0 0 0 7.73,-1.3 38.24,38.24 0 0 0 4.42,-1.61 20.47,20.47 0 0 0 4.24,-2.42 12.19,12.19 0 0 0 5,-7.89 15.58,15.58 0 0 0 -0.85,-6.44 25.11,25.11 0 0 0 -1.52,-3.91 15.17,15.17 0 0 0 -1.22,-2.05 c -3.28,-4.65 -9.06,-6.84 -14.65,-7.93 -2.95,-0.57 -5.95,-0.92 -8.91,-1.42 a 31.85,31.85 0 0 1 -4.31,0.66 c -4.54,0.32 -9.0001,-0.9 -13.4201,-2.11 l -4.78,-1.32 c -2.39,-0.66 -3.59,-3.55 -6,-4.06 a 8.12,8.12 0 0 0 -3.24996,0.17 c -4.91,0.93 -9.87,2.14 -14.2,4.64 a 21.32,21.32 0 0 0 -2.79,1.97 z"
       style="opacity:0.1"
       inkscape:connector-curvature="0" />
    <path
       id="path1973-5-1-2-6"
       d="m 337.33902,446.53138 c -0.49,-2.31 -0.85,-4.71 -2.12,-6.69 a 15.16,15.16 0 0 0 -3.12,-3.28 20.74,20.74 0 0 0 -6.68,-4.17 8.34,8.34 0 0 0 -7.56,0.87 c -2.11,1.6 -3,4.34 -3.33,7 a 17.07,17.07 0 0 0 1.78,10.55 c 2,3.56 5.59,5.94 8.56,8.78 a 34.39,34.39 0 0 1 5.58,7 20.21,20.21 0 0 0 2.54,3.72 4.84,4.84 0 0 0 4,1.61 7,7 0 0 0 3.27,-1.93 c 1.22,-1.07 4.5,-3 4.6,-4.67 0.08,-1.37 -2.48,-4.47 -3.11,-5.76 a 65.41,65.41 0 0 1 -4.41,-13.03 z"
       style="fill:#fbbebe"
       inkscape:connector-curvature="0" />
    <path
       id="path1983-3-4"
       d="m 345.66182,460.68077 c 0.61,5.83 5.53,10.11 8.53,15.14 1.46,2.45 2.48,5.13 3.79,7.66 a 75,75 0 0 0 5,8 l 5.35,7.77 c 3.15,4.57 6.32996,9.18 10.34996,13 7,1.19 12.9,6.4 19.5501,8.93 5.33,2 11.13,2.3 16.72,3.39 5.59,1.09 11.37,3.27 14.65,7.93 a 20.83,20.83 0 0 1 2.74,6 15.54,15.54 0 0 1 0.85,6.43 12.19,12.19 0 0 1 -5,7.9 27.71,27.71 0 0 1 -8.65,4 22.74,22.74 0 0 1 -7.73,1.3 9.44,9.44 0 0 1 -6.94,-3.2 c -1.56,-2 -1.55,-5.19 -3.27,-7 a 15.75,15.75 0 0 0 -3.15,-2.39 l -14.2901,-9 a 72.17,72.17 0 0 0 -6.9,-4 c -4.80996,-2.35 -10.09996,-3.62 -14.87996,-6 -4.78,-2.38 -9.23,-6.41 -10.17,-11.68 -2.91,-16.19 -14.12,-29.84 -23.7,-43.21 0.31,-0.06 0.22,-0.78 0.33,-1.08 a 14,14 0 0 1 7,-7.08 c 3.08,-1.67 6.5,-2.1 9.82,-2.81 z"
       style="fill:#f86d70"
       inkscape:connector-curvature="0" />
    <path
       id="path1985-0-3"
       d="m 396.17178,460.80077 a 8.87,8.87 0 0 1 1.0001,-5.08 c 1.59,-2.64 4.91,-3.57 7.93,-4.19 3.02,-0.62 5.8,-1.1 8.72,-1.52 a 20.1,20.1 0 0 1 7.21,-0.13 c 3.26,0.72 6,2.91 9,4.26 3.6,1.61 7.6,2 11.44,2.92 3.84,0.92 7.79,2.39 10.2,5.52 1.83,2.37 2.56,5.4 3.11,8.35 4.57,24.63 -0.35,49.89 -1.28,74.92 -0.37,9.74 0.07,20.15 5.64,28.16 l -16.21,-0.43 c -4.15,-0.11 -8.61,-0.33 -11.87,-2.89 -2.88,-2.25 -4.24,-5.88 -5.46,-9.31 a 29,29 0 0 1 -2.08,-8.35 c -0.25,-5.88 3.09,-11.65 2,-17.44 -0.81,-4.32 -4,-7.82 -7.32,-10.65 -3.32,-2.83 -7.1,-5.3 -9.83,-8.75 -4.85,-6.15 -5.78,-14.54 -5.18,-22.35 0.36,-4.64 1.2,-9.29 0.79,-13.93 a 17.53,17.53 0 0 0 -3.67,-9.76 c -2.55,-3.08 -3.9001,-5 -4.1401,-9.35 z"
       style="fill:#434175"
       inkscape:connector-curvature="0" />
    <path
       id="path1987-7-0"
       d="m 397.17188,455.72077 c 1.56,-2.6 4.8,-3.54 7.77,-4.15 a 7.67,7.67 0 0 0 -3.85,3 9,9 0 0 0 -1,5.09 c 0.22,4.35 1.57,6.27 4.15,9.35 a 17.44,17.44 0 0 1 3.68,9.76 c 0.4,4.64 -0.43,9.28 -0.79,13.93 -0.61,7.8 0.32,16.2 5.18,22.35 2.72,3.45 6.47,5.91 9.83,8.75 3.36,2.84 6.51,6.33 7.32,10.65 1.08,5.78 -2.26,11.56 -2,17.44 a 28.51,28.51 0 0 0 2.07,8.34 c 1.23,3.44 2.59,7.07 5.46,9.32 3.26,2.56 7.73,2.78 11.88,2.89 l 11.48,0.3 c 0.25,0.42 0.52,0.84 0.8,1.25 l -16.21,-0.43 c -4.15,-0.11 -8.61,-0.33 -11.87,-2.89 -2.88,-2.25 -4.24,-5.88 -5.46,-9.31 a 29,29 0 0 1 -2.08,-8.35 c -0.25,-5.88 3.09,-11.65 2,-17.44 -0.81,-4.32 -4,-7.82 -7.32,-10.65 -3.32,-2.83 -7.1,-5.3 -9.83,-8.75 -4.85,-6.15 -5.78,-14.54 -5.18,-22.35 0.36,-4.64 1.2,-9.29 0.79,-13.93 a 17.53,17.53 0 0 0 -3.67,-9.76 c -2.58,-3.08 -3.9301,-5 -4.1601,-9.35 a 8.87,8.87 0 0 1 1.0101,-5.06 z"
       style="opacity:0.1"
       inkscape:connector-curvature="0" />
    <path
       id="path1989-8-3"
       d="m 275.39182,709.55076 29.78,72.55 a 14.52,14.52 0 0 0 4.14,-4.57 c -2.39,-9 -4.84,-18.23 -9.71,-26.22 -1.59,-2.6 -3.41,-5 -5,-7.61 -4.73,-7.45 -5.71,-16.84 -11.12,-23.81 a 4.08,4.08 0 0 1 0,-4.84 c 0.62,-0.81 1.62,-1.58 1.43,-2.59 -0.14,-0.73 -0.9,-1.39 -0.61,-2.07 0.14,-0.33 0.48,-0.51 0.74,-0.75 0.92,-0.84 0.8,-2.29 0.89,-3.53 0.2,-3.16 2.09,-5.93 3.92,-8.51 a 5.34,5.34 0 0 1 1.44,-1.55 c 0.49,-0.3 1.07,-0.44 1.56,-0.74 1.72,-1.07 1.6,-3.59 2.43,-5.46 1.08,-2.46 3.8,-3.71 5.59,-5.7 2.27,-2.54 2.84,-6.07 5.24,-8.29 l 0.21,-0.52 -2.25,-14 z"
       style="opacity:0.1"
       inkscape:connector-curvature="0" />
    <rect
       id="rect1897-0-0"
       rx="10.65"
       height="21.309999"
       width="80.57"
       y="476.806"
       x="76.106209"
       style="fill:#b3ff80" />
    <rect
       id="rect20-6-6-9"
       height="7.1996841"
       width="269.70447"
       y="538.75244"
       x="73.37989"
       style="fill:#3f3d56" />
    <rect
       id="rect26-8-8-2"
       height="40.802448"
       width="15.200212"
       y="521.95105"
       x="236.37939"
       style="fill:#8bc34a" />
    <rect
       id="rect1897-9-5"
       rx="10.65"
       height="21.309999"
       width="80.57"
       y="596.60669"
       x="76.073128"
       style="fill:#b3ff80" />
  </g>
</svg>
